<svg xmlns="http://www.w3.org/2000/svg" width="57" height="34" viewBox="0 0 57 34">
  <g fill="none" fill-rule="evenodd" opacity=".485" transform="translate(-.3 .044)">
    <polygon fill="#08BD28" points=".511 33.663 .511 .907 22.305 17.285"/>
    <g fill="#FFF" fill-rule="nonzero" transform="translate(36.651)">
      <path d="M5.34494011 0L.763562872 0C.341312604 0 0 .683961069 0 1.53011425L0 32.1323992C0 32.9785524.341312604 33.6625135.763562872 33.6625135L5.34494011 33.6625135C5.76719037 33.6625135 6.10850298 32.9785524 6.10850298 32.1323992L6.10850298 1.53011425C6.10850298.683961069 5.76719037 0 5.34494011 0zM19.0890718 0L14.5076946 0C14.0854443 0 13.7441317.683961069 13.7441317 1.53011425L13.7441317 32.1323992C13.7441317 32.9785524 14.0854443 33.6625135 14.5076946 33.6625135L19.0890718 33.6625135C19.5113221 33.6625135 19.8526347 32.9785524 19.8526347 32.1323992L19.8526347 1.53011425C19.8526347.683961069 19.5113221 0 19.0890718 0z"/>
    </g>
  </g>
</svg>
