<svg xmlns="http://www.w3.org/2000/svg" width="22" height="22" viewBox="0 0 22 22">
  <path fill="#08BD28" d="M11.5628536,0.766356677 C5.6099351,0.766356677 0.766356677,5.6099351 0.766356677,11.5628536 C0.766356677,17.5157721 5.6099351,22.3593505 11.5628536,22.3593505 C17.5157721,22.3593505 22.3593505,17.5157721 22.3593505,11.5628536 C22.3593505,5.6099351 17.5157721,0.766356677 11.5628536,0.766356677 Z M17.6203903,12.2581633 L8.55815557,18.02504 C8.42304589,18.1098954 8.26981173,18.1535589 8.11575374,18.1535589 C7.97982022,18.1535589 7.84306286,18.1197815 7.71948693,18.0522267 C7.45585829,17.9072309 7.29191422,17.6304208 7.29191422,17.3297194 L7.29191422,5.79596611 C7.29191422,5.49526469 7.45585829,5.21845461 7.71948693,5.07345885 C7.98311558,4.92928693 8.30441299,4.93999685 8.55897941,5.10064555 L17.6212141,10.8675222 C17.8576561,11.0191087 18.001828,11.2810896 18.001828,11.5628428 C18.001828,11.8445959 17.8576561,12.1065768 17.6203903,12.2581633 Z" opacity=".696" transform="translate(-.579 -.728)"/>
</svg>
