<svg xmlns="http://www.w3.org/2000/svg" width="22" height="22" viewBox="0 0 22 22">
  <g fill="none" transform="translate(.641 .475)">
    <path fill="#72C472" d="M20.2605713,0 L0.920935061,0 C0.412316441,0 0,0.412316441 0,0.920935061 L0,20.2605713 C0,20.76919 0.412316441,21.1815064 0.920935061,21.1815064 L20.2605713,21.1815064 C20.76919,21.1815064 21.1815064,20.76919 21.1815064,20.2605713 L21.1815064,0.920935061 C21.1815064,0.412316441 20.76919,0 20.2605713,0 Z"/>
    <path fill="#FFF" d="M15.655896,9.20935061 L11.9721558,9.20935061 L11.9721558,5.52561037 C11.9721558,5.27129875 11.7659953,5.06514284 11.5116883,5.06514284 L9.66981814,5.06514284 C9.41551113,5.06514284 9.20935061,5.27129875 9.20935061,5.52561037 L9.20935061,9.20935061 L5.52561037,9.20935061 C5.27129875,9.20935061 5.06514284,9.41551113 5.06514284,9.66981814 L5.06514284,11.5116883 C5.06514284,11.7659953 5.27129875,11.9721558 5.52561037,11.9721558 L9.20935061,11.9721558 L9.20935061,15.655896 C9.20935061,15.910203 9.41551113,16.1163636 9.66981814,16.1163636 L11.5116883,16.1163636 C11.7659953,16.1163636 11.9721558,15.910203 11.9721558,15.655896 L11.9721558,11.9721558 L15.655896,11.9721558 C15.910203,11.9721558 16.1163636,11.7659953 16.1163636,11.5116883 L16.1163636,9.66981814 C16.1163636,9.41551113 15.910203,9.20935061 15.655896,9.20935061 Z"/>
  </g>
</svg>
