<svg xmlns="http://www.w3.org/2000/svg" width="24" height="17" viewBox="0 0 24 17">
  <g fill="#FFF" transform="translate(0 .5)">
    <path d="M23 9.41523387L1 9.41523387C.4 9.41523387 0 9.01523387 0 8.41523387 0 7.81523387.4 7.41523387 1 7.41523387L23 7.41523387C23.6 7.41523387 24 7.81523387 24 8.41523387 24 9.01523387 23.6 9.41523387 23 9.41523387zM23 2.41523387L1 2.41523387C.4 2.41523387 0 2.01523387 0 1.41523387 0 .81523387.4.41523387 1 .41523387L23 .41523387C23.6.41523387 24 .81523387 24 1.41523387 24 2.01523387 23.6 2.41523387 23 2.41523387zM23 16.4152339L1 16.4152339C.4 16.4152339 0 16.0152339 0 15.4152339 0 14.8152339.4 14.4152339 1 14.4152339L23 14.4152339C23.6 14.4152339 24 14.8152339 24 15.4152339 24 16.0152339 23.6 16.4152339 23 16.4152339z"/>
  </g>
</svg>
