<svg xmlns="http://www.w3.org/2000/svg" width="5" height="16" viewBox="0 0 5 16">
  <path fill="#111" fill-opacity=".6" d="M2.5361142,4 C3.6361142,4 4.5361142,3.1 4.5361142,2 C4.5361142,0.9 3.6361142,0 2.5361142,0 C1.4361142,0 0.5361142,0.9 0.5361142,2 C0.5361142,3.1 1.4361142,4 2.5361142,4 Z M2.5361142,6 C1.4361142,6 0.5361142,6.9 0.5361142,8 C0.5361142,9.1 1.4361142,10 2.5361142,10 C3.6361142,10 4.5361142,9.1 4.5361142,8 C4.5361142,6.9 3.6361142,6 2.5361142,6 Z M2.5361142,12 C1.4361142,12 0.5361142,12.9 0.5361142,14 C0.5361142,15.1 1.4361142,16 2.5361142,16 C3.6361142,16 4.5361142,15.1 4.5361142,14 C4.5361142,12.9 3.6361142,12 2.5361142,12 Z"/>
</svg>
